<svg width="159" height="60" viewBox="0 0 159 60" fill="none" xmlns="http://www.w3.org/2000/svg">
<path d="M0 21.0812V29.7198L23.3294 27.154V17.8039L0 21.0812Z" fill="white"/>
<path d="M7.44531 30.2464V59.8597H15.9843V29.3724L7.44531 30.2464Z" fill="white"/>
<path d="M26.4805 17.3613V59.8597H35.4792V16.0952L26.4805 17.3613Z" fill="white"/>
<path d="M37.1611 15.8599V25.6358L50.1574 24.2072V14.0336L37.1611 15.8599Z" fill="white"/>
<path d="M37.1611 32.913V42.8682L45.6889 42.4032V32.1792L37.1611 32.913Z" fill="white"/>
<path d="M37.1611 50.0446V59.8597H50.1574V49.6525L37.1611 50.0446Z" fill="white"/>
<path d="M83.7637 9.29969V59.8597H95.5658V7.64143L83.7637 9.29969Z" fill="white"/>
<path d="M97.7695 7.3333V18.9635L114.965 17.0756V4.91875L97.7695 7.3333Z" fill="white"/>
<path d="M97.7695 27.7086V39.5573L109.039 38.941V26.745L97.7695 27.7086Z" fill="white"/>
<path d="M97.7695 48.2127V59.8597H114.965V47.6917L97.7695 48.2127Z" fill="white"/>
<path d="M53.5947 13.5518V59.8597H63.8493V12.112L53.5947 13.5518Z" fill="white"/>
<path d="M65.7607 49.1819V59.8597H80.6409V48.7337L65.7607 49.1819Z" fill="white"/>
<path d="M153.517 4.34733C149.788 0.829137 144.322 -0.616235 138.34 0.240905V13.126C140.762 12.9916 142.724 13.8879 143.599 15.6974C144.978 18.549 143.554 22.8235 140.195 26.7898C135.009 32.9019 121.217 45.4228 121.217 45.4228L141.014 44.773C153.113 32.9635 157.453 25.7982 158.232 16.8515C158.445 14.5466 158.131 12.2235 157.314 10.0574C156.497 7.89138 155.199 5.93893 153.517 4.34733Z" fill="white"/>
<path d="M118.772 47.574L118.778 59.8597H158.928V46.364L118.772 47.574Z" fill="white"/>
<path d="M136.029 0.532211C124.362 3.01399 118.649 11.591 119.299 25.5853L131.735 24.4649C131.174 16.5602 133.585 14.6834 136.035 13.6526L136.029 0.532211Z" fill="white"/>
</svg>
